<svg width="33" height="22" viewBox="0 0 33 22" fill="none" xmlns="http://www.w3.org/2000/svg">
<path d="M13.2687 0.824586C13.7697 0.824586 14.1992 1.00353 14.5571 1.36142C14.8434 1.7193 14.9865 2.14877 14.9865 2.64981C14.9865 3.22243 14.8792 3.79505 14.6644 4.36766L8.97404 19.0768C8.61615 19.7926 8.25827 20.3652 7.90038 20.7947C7.47092 21.2957 6.79093 21.5462 5.86043 21.5462L2.31735 21.5462C1.74473 21.5462 1.31527 21.3315 1.02896 20.902C0.671071 20.4726 0.563705 19.8999 0.70686 19.1842L3.06891 3.9382C3.14049 3.07927 3.4268 2.32771 3.92784 1.68351C4.42888 1.11089 5.18044 0.824585 6.18253 0.824585L13.2687 0.824586ZM30.4472 0.824587C30.9483 0.824587 31.3777 1.00353 31.7356 1.36142C32.0219 1.7193 32.1651 2.14877 32.1651 2.64981C32.1651 3.22243 32.0577 3.79505 31.843 4.36766L26.1526 19.0768C25.7947 19.7926 25.401 20.3652 24.9716 20.7947C24.5421 21.2957 23.8979 21.5462 23.039 21.5462H19.4959C18.9233 21.5462 18.4938 21.3315 18.2075 20.902C17.8496 20.4726 17.7423 19.8999 17.8854 19.1842L20.2475 3.9382C20.319 3.07927 20.6054 2.32771 21.1064 1.68352C21.6074 1.1109 22.3232 0.824586 23.2537 0.824586L30.4472 0.824587Z" fill="#091242"/>
</svg>
